<svg viewBox="0 0 1024 1089.841" xmlns="http://www.w3.org/2000/svg"><path d="m567.674 769.786c-81.922 38.155-158.156 37.682-209.37 34.054-61.04-4.422-110.137-21.11-131.7-35.698-13.303-9.014-31.35-5.518-40.403 7.824-9.05 13.323-5.517 31.333 7.825 40.385 34.678 23.49 96.04 40.953 160.197 45.583 10.885.775 22.79 1.285 35.66 1.285 55.805 0 126.654-5.33 202.434-40.574 14.59-6.765 20.882-24.076 14.08-38.646-6.785-14.59-24.058-20.882-38.647-14.08l-.077-.13zm323.267-43.05c2.817-252.683 28.745-730.196-454.985-691.606-477.644 38.46-350.991 542.976-358.078 711.94-6.33 89.406-35.963 198.674-77.878 309.83l129.072.02c13.247-47.094 23.055-93.716 27.175-138.163 7.824 5.443 16.14 10.677 25.04 15.666 14.476 8.523 26.873 19.843 40.064 31.805 30.73 28.044 65.596 59.774 133.703 63.743 4.535.266 9.128.398 13.682.398 68.94 0 116.033-30.142 153.866-54.407 18.124-11.583 33.79-21.637 48.587-26.437 41.916-13.115 78.52-34.3 105.923-61.248 4.27-4.233 8.24-8.523 11.962-12.926 15.25 55.88 36.095 118.79 59.264 181.513l275.664-.02c-66.18-102.2-134.458-202.357-133.06-330.183v.076zm-766.855-137.482v-.057c-4.743-82.45 34.696-151.825 88.12-154.963 53.444-3.156 100.557 61.248 105.28 143.68v.076c.266 4.422.38 8.825.38 13.172-16.915 4.233-32.184 10.432-45.885 17.613-.076-.624-.076-1.21-.113-1.852-4.554-46.79-29.575-82.168-55.88-78.974-26.326 3.174-43.9 43.767-39.31 90.558 1.985 20.41 7.863 38.646 16.064 52.423-2.06 1.588-7.823 5.822-14.4 10.622-4.988 3.647-10.998 8.05-18.31 13.436-19.9-26.117-33.526-63.535-35.964-105.923l.02.19zm541.197 203.85c-1.91 43.598-58.886 84.626-111.573 101.067l-.303.114c-21.903 7.124-41.424 19.597-62.08 32.826-34.753 22.205-70.66 45.185-122.496 45.185-3.382 0-6.916-.113-10.298-.302-47.49-2.76-69.77-23.055-97.853-48.7-14.855-13.493-30.2-27.515-49.967-39.12l-.472-.264c-42.69-24.115-69.165-54.087-70.923-80.185-.813-12.983 4.95-24.19 17.16-33.41 26.626-19.976 44.485-33.016 56.258-41.652 13.115-9.6 17.084-12.473 20.032-15.288 2.098-1.984 4.365-4.158 6.784-6.595 24.455-23.755 65.33-63.554 128.13-63.554 38.4 0 80.882 14.778 126.142 43.9 21.317 13.89 39.875 20.296 63.346 28.422 16.14 5.575 34.508 11.906 59 22.413l.396.19c22.848 9.41 49.928 26.552 48.643 54.917l.076.038zm-12.606-102.424c-4.422-2.25-8.958-4.348-13.758-6.256-22.093-9.487-39.82-15.874-54.54-20.996 8.145-15.874 13.19-35.698 13.644-57.204 1.172-52.347-25.266-94.924-59-94.98-33.713-.04-61.946 42.31-63.1 94.658-.075 1.72-.075 3.383 0 5.12-20.73-9.524-41.14-16.516-61.17-20.73-.077-1.984-.21-3.893-.266-5.877v-.057c-1.928-95.434 56.58-174.408 130.736-176.392 74.174-1.984 135.8 73.72 137.784 169.08v.076c.888 43.125-10.696 82.867-30.407 113.67z"/></svg>